<svg xmlns="http://www.w3.org/2000/svg" id="Шар_1" data-name="Шар 1" viewBox="0 0 85.61 85.61"><defs><style>.cls-1{fill:#1a1a1a;}.cls-2{fill:#992024;}</style></defs><title>Alternative_logo_Mechanical_Engineering_Technology</title><path class="cls-1" d="M99.48,279.9l0,0a65.47,65.47,0,0,1,4.39-10.76,1.57,1.57,0,0,0,0-1.75c-1.08-2.08-2.14-4.17-3.1-6.31a1.71,1.71,0,0,1,.14-1.52l.12-.12a2.24,2.24,0,0,1,.29-.35l.74-.73c2.25-2.34,4.54-4.64,6.8-7a1.75,1.75,0,0,1,.78-.52,1.36,1.36,0,0,1,1.48.1c2,1.06,4,2.12,6.12,3.08a2.33,2.33,0,0,0,1.48,0,45,45,0,0,1,10.43-4.37,2.11,2.11,0,0,0,1.21-1.19q1.2-3.22,2.17-6.52a1.44,1.44,0,0,1,1.51-1.24,1.87,1.87,0,0,1,.34,0l5.45,0,5.45,0a1.9,1.9,0,0,1,.35,0,1.44,1.44,0,0,1,1.5,1.24c.66,2.2,1.38,4.37,2.18,6.52a2.13,2.13,0,0,0,1.2,1.19A44.83,44.83,0,0,1,161,254a2.33,2.33,0,0,0,1.48,0c2.08-1,4.1-2,6.13-3.08a1.35,1.35,0,0,1,1.47-.1,1.77,1.77,0,0,1,.79.52c2.25,2.34,4.55,4.64,6.8,7l.73.73a2.33,2.33,0,0,1,.3.35l.11.12a1.68,1.68,0,0,1,.15,1.52c-1,2.14-2,4.23-3.11,6.31a1.55,1.55,0,0,0,0,1.75,65.47,65.47,0,0,1,4.39,10.76.11.11,0,0,1,0,0h0v0H172a33.67,33.67,0,0,0-64.35,0h-8.2v0Z" transform="translate(-99.21 -240.66)"/><polygon class="cls-2" points="0 43.55 0 51.85 34.24 51.85 34.66 51.85 34.66 43.55 0 43.55"/><path class="cls-2" d="M112.32,322.87h8.29v-26h-8.29Z" transform="translate(-99.21 -240.66)"/><path class="cls-2" d="M180.48,322.87V284.21H169l-9.1,21.5-9-21.5H139.39c.07,3.17,0,37.78,0,38.66h8.32V296.59l9.65,22h5.22l9.67-22.15v26.43Z" transform="translate(-99.21 -240.66)"/></svg>