<svg id="Шар_1" data-name="Шар 1" xmlns="http://www.w3.org/2000/svg" viewBox="0 0 368.5 85.61"><defs><style>.cls-1{fill:#1a1a1a;}.cls-2{fill:#992024;}</style></defs><title>Alternative_logo_Mechanical_Engineering_Technology</title><path class="cls-1" d="M99.48,279.9l0,0a65.47,65.47,0,0,1,4.39-10.76,1.57,1.57,0,0,0,0-1.75c-1.08-2.08-2.14-4.17-3.1-6.31a1.71,1.71,0,0,1,.14-1.52l.12-.12a2.24,2.24,0,0,1,.29-.35l.74-.73c2.25-2.34,4.54-4.64,6.8-7a1.75,1.75,0,0,1,.78-.52,1.36,1.36,0,0,1,1.48.1c2,1.06,4,2.12,6.12,3.08a2.33,2.33,0,0,0,1.48,0,45,45,0,0,1,10.43-4.37,2.11,2.11,0,0,0,1.21-1.19q1.2-3.22,2.17-6.52a1.44,1.44,0,0,1,1.51-1.24,1.87,1.87,0,0,1,.34,0l5.45,0,5.45,0a1.9,1.9,0,0,1,.35,0,1.44,1.44,0,0,1,1.5,1.24c.66,2.2,1.38,4.37,2.18,6.52a2.13,2.13,0,0,0,1.2,1.19A44.83,44.83,0,0,1,161,254a2.33,2.33,0,0,0,1.48,0c2.08-1,4.1-2,6.13-3.08a1.35,1.35,0,0,1,1.47-.1,1.77,1.77,0,0,1,.79.52c2.25,2.34,4.55,4.64,6.8,7l.73.73a2.33,2.33,0,0,1,.3.35l.11.12a1.68,1.68,0,0,1,.15,1.52c-1,2.14-2,4.23-3.11,6.31a1.55,1.55,0,0,0,0,1.75,65.47,65.47,0,0,1,4.39,10.76.11.11,0,0,1,0,0h0v0H172a33.67,33.67,0,0,0-64.35,0h-8.2v0Z" transform="translate(-99.21 -240.66)"/><polygon class="cls-2" points="0 43.55 0 51.85 34.24 51.85 34.66 51.85 34.66 43.55 0 43.55"/><path class="cls-2" d="M112.32,322.87h8.29v-26h-8.29Z" transform="translate(-99.21 -240.66)"/><path class="cls-2" d="M180.48,322.87V284.21H169l-9.1,21.5-9-21.5H139.39c.07,3.17,0,37.78,0,38.66h8.32V296.59l9.65,22h5.22l9.67-22.15v26.43Z" transform="translate(-99.21 -240.66)"/><path class="cls-1" d="M207.37,289.37h-2.45v6.4h-3.51V279.89h3.51v6.42h2.54l4-6.42h3.74l-5,7.67,5.15,8.21h-4Z" transform="translate(-99.21 -240.66)"/><path class="cls-1" d="M228.69,292.36h-7.1l-1.35,3.41h-3.63l6.82-15.88h3.49l6.83,15.88H230Zm-1.12-2.79-2.42-6.07-2.42,6.07Z" transform="translate(-99.21 -240.66)"/><path class="cls-1" d="M250.06,292.74a9.5,9.5,0,0,1-5.93,2v1.73h-3.25v-1.75a9.69,9.69,0,0,1-5.95-2,6.88,6.88,0,0,1,0-9.82,10,10,0,0,1,5.95-2v-1.63h3.25v1.61a9.57,9.57,0,0,1,5.93,2,6.93,6.93,0,0,1,0,9.88Zm-9.18-.88v-8.14a6,6,0,0,0-3.46,1.22,3.56,3.56,0,0,0-1.12,2.84C236.3,290.17,237.82,291.53,240.88,291.86Zm6.7-1.23a3.63,3.63,0,0,0,1.14-2.87c0-2.42-1.53-3.76-4.59-4v8.14A6,6,0,0,0,247.58,290.63Z" transform="translate(-99.21 -240.66)"/><path class="cls-1" d="M266.64,292.82v2.95H254.81V279.89h11.55v2.95h-8v3.45h7.09v2.85h-7.09v3.68Z" transform="translate(-99.21 -240.66)"/><path class="cls-1" d="M285.31,292.77v6.28H282v-3.28H271.25v3.28H268l0-6.28h.61c.92,0,1.56-.72,1.94-2.08a26.58,26.58,0,0,0,.7-5.83l.18-5h11.74v12.88ZM273.91,290a6.36,6.36,0,0,1-1.07,2.82h6.84v-9.89h-5.24l-.07,2.32A33.05,33.05,0,0,1,273.91,290Z" transform="translate(-99.21 -240.66)"/><path class="cls-1" d="M297.87,280.59a5.33,5.33,0,0,1,2.31,2,6.17,6.17,0,0,1,0,6.11,5.21,5.21,0,0,1-2.31,2,8.31,8.31,0,0,1-3.52.69h-3.08v4.38h-3.54V279.89h6.62A8.16,8.16,0,0,1,297.87,280.59Zm-1.29,7.09a2.92,2.92,0,0,0,0-4.08,3.63,3.63,0,0,0-2.43-.72h-2.88v5.51h2.88A3.63,3.63,0,0,0,296.58,287.68Z" transform="translate(-99.21 -240.66)"/><path class="cls-1" d="M313,292.36h-7.1l-1.35,3.41h-3.62l6.81-15.88h3.49L318,295.77H314.3Zm-1.11-2.79-2.43-6.07L307,289.57Z" transform="translate(-99.21 -240.66)"/><path class="cls-1" d="M338,282.88H333.1v12.89h-3.49V282.88h-4.87v-3H338Z" transform="translate(-99.21 -240.66)"/><path class="cls-1" d="M352.09,292.82v2.95H340.26V279.89h11.55v2.95h-8v3.45h7.09v2.85h-7.09v3.68Z" transform="translate(-99.21 -240.66)"/><path class="cls-1" d="M357.6,279.89l3.16,4.81,3.17-4.81h4.15l-5.09,7.6,5.5,8.28h-4.17l-3.56-5.27-3.51,5.27h-4.09l5.46-8.12-5.11-7.76Z" transform="translate(-99.21 -240.66)"/><path class="cls-1" d="M384.19,279.89v15.88h-3.54v-6.51h-6.94v6.51h-3.54V279.89h3.54v6.26h6.94v-6.26Z" transform="translate(-99.21 -240.66)"/><path class="cls-1" d="M391.05,295a7.75,7.75,0,0,1-3-2.94,8.73,8.73,0,0,1,0-8.41,7.82,7.82,0,0,1,3-2.94,8.69,8.69,0,0,1,4.29-1.06,8.57,8.57,0,0,1,4.28,1.06,7.82,7.82,0,0,1,3,2.94,8.66,8.66,0,0,1,0,8.41,7.75,7.75,0,0,1-3,2.94,8.58,8.58,0,0,1-4.28,1.07A8.7,8.7,0,0,1,391.05,295Zm6.74-2.71a4.49,4.49,0,0,0,1.71-1.8,5.89,5.89,0,0,0,0-5.26,4.59,4.59,0,0,0-1.71-1.81,4.73,4.73,0,0,0-6.61,1.81,5.89,5.89,0,0,0,0,5.26,4.59,4.59,0,0,0,1.72,1.8,4.92,4.92,0,0,0,4.89,0Z" transform="translate(-99.21 -240.66)"/><path class="cls-1" d="M419.66,279.89v15.88h-3.49V282.88h-5.24l-.11,3.31a35.61,35.61,0,0,1-.52,5.48,6.91,6.91,0,0,1-1.39,3.22,3.4,3.4,0,0,1-2.72,1.12,7.8,7.8,0,0,1-1.74-.24l.22-3.11a2,2,0,0,0,.63.09c.84,0,1.43-.52,1.77-1.55a20.17,20.17,0,0,0,.63-4.87l.22-6.44Z" transform="translate(-99.21 -240.66)"/><path class="cls-1" d="M426.53,295a7.75,7.75,0,0,1-3-2.94,8.73,8.73,0,0,1,0-8.41,7.82,7.82,0,0,1,3-2.94,9.19,9.19,0,0,1,8.57,0,7.89,7.89,0,0,1,3,2.94,8.66,8.66,0,0,1,0,8.41,7.82,7.82,0,0,1-3,2.94,9.12,9.12,0,0,1-8.57,0Zm6.74-2.71a4.63,4.63,0,0,0,1.71-1.8,5.89,5.89,0,0,0,0-5.26,4.56,4.56,0,0,0-4.16-2.45,4.59,4.59,0,0,0-4.16,2.45,5.89,5.89,0,0,0,0,5.26,4.59,4.59,0,0,0,1.72,1.8,4.69,4.69,0,0,0,2.44.65A4.75,4.75,0,0,0,433.27,292.26Z" transform="translate(-99.21 -240.66)"/><path class="cls-1" d="M452.72,282.88h-7.27l0,12.89H442V279.89h10.78Z" transform="translate(-99.21 -240.66)"/><path class="cls-1" d="M455,279.89h3.51v15.88H455Z" transform="translate(-99.21 -240.66)"/><path class="cls-1" d="M460.69,278a1.65,1.65,0,0,1,0-2.24,1.44,1.44,0,0,1,1.09-.44,1.42,1.42,0,0,1,1.08.44,1.67,1.67,0,0,1,0,2.24,1.42,1.42,0,0,1-1.08.44A1.44,1.44,0,0,1,460.69,278Zm1.52,1.85h3.54v15.88h-3.54Zm2.91-1.85a1.65,1.65,0,0,1,0-2.24,1.55,1.55,0,0,1,2.16,0,1.65,1.65,0,0,1,0,2.24,1.55,1.55,0,0,1-2.16,0Z" transform="translate(-99.21 -240.66)"/><path class="cls-1" d="M215.36,323l0-9.5-4.5,7.82h-1.57l-4.5-7.64V323h-3.32V307.11h2.93L210.1,317l5.63-9.86h2.93l0,15.87Z" transform="translate(-99.21 -240.66)"/><path class="cls-1" d="M232.93,319.58h-7.09l-1.35,3.4h-3.63l6.81-15.87h3.5L238,323h-3.71Zm-1.11-2.79-2.42-6.08L227,316.79Z" transform="translate(-99.21 -240.66)"/><path class="cls-1" d="M260.31,307.11V323H240.14V307.11h3.51V320h4.83V307.11H252V320h4.81V307.11Z" transform="translate(-99.21 -240.66)"/><path class="cls-1" d="M264.22,307.11h3.51v10.34l7.3-10.34h3.32V323h-3.5V312.66L267.56,323h-3.34Z" transform="translate(-99.21 -240.66)"/><path class="cls-1" d="M296.27,307.11V323h-3.54v-6.51h-6.94V323h-3.54V307.11h3.54v6.25h6.94v-6.25Z" transform="translate(-99.21 -240.66)"/><path class="cls-1" d="M303.2,322.19a7.82,7.82,0,0,1-3-2.94,8.73,8.73,0,0,1,0-8.41,7.75,7.75,0,0,1,3-2.94,9.12,9.12,0,0,1,8.57,0,7.82,7.82,0,0,1,3,2.94,8.66,8.66,0,0,1,0,8.41,7.89,7.89,0,0,1-3,2.94,9.19,9.19,0,0,1-8.57,0Zm6.74-2.71a4.66,4.66,0,0,0,1.71-1.81,5.89,5.89,0,0,0,0-5.26,4.63,4.63,0,0,0-1.71-1.8,4.75,4.75,0,0,0-2.45-.65,4.69,4.69,0,0,0-2.44.65,4.59,4.59,0,0,0-1.72,1.8,5.89,5.89,0,0,0,0,5.26,4.61,4.61,0,0,0,1.72,1.81,4.68,4.68,0,0,0,2.44.64A4.74,4.74,0,0,0,309.94,319.48Z" transform="translate(-99.21 -240.66)"/><path class="cls-1" d="M318.69,307.11H331V310h-8.82v3.27h4.23a6.5,6.5,0,0,1,4.23,1.2,4.27,4.27,0,0,1,1.45,3.47,4.47,4.47,0,0,1-1.62,3.69,7,7,0,0,1-4.56,1.32h-7.25Zm7.05,13.15a3.35,3.35,0,0,0,2.08-.56,1.92,1.92,0,0,0,.72-1.62c0-1.39-.93-2.08-2.8-2.08h-3.53v4.26Z" transform="translate(-99.21 -240.66)"/><path class="cls-1" d="M348.14,307.11l-6.5,12.56a7.48,7.48,0,0,1-2.26,2.74,4.89,4.89,0,0,1-2.87.93,6.43,6.43,0,0,1-2.49-.54l.85-2.79a5,5,0,0,0,1.53.29,2.27,2.27,0,0,0,1.18-.32,3.15,3.15,0,0,0,1-1l.13-.18-6-11.65h3.78l4.06,8.52,4.19-8.52Z" transform="translate(-99.21 -240.66)"/><path class="cls-1" d="M365.46,320v6.28h-3.28V323H351.4v3.29h-3.28l0-6.28h.61c.92,0,1.57-.73,1.95-2.09a26.42,26.42,0,0,0,.7-5.83l.17-5h11.75V320Zm-11.4-2.83A6.46,6.46,0,0,1,353,320h6.83V310.1h-5.24l-.06,2.31A34.55,34.55,0,0,1,354.06,317.16Z" transform="translate(-99.21 -240.66)"/><path class="cls-1" d="M381.74,307.11l-6.5,12.56a7.48,7.48,0,0,1-2.26,2.74,4.89,4.89,0,0,1-2.87.93,6.43,6.43,0,0,1-2.49-.54l.85-2.79a5,5,0,0,0,1.53.29,2.27,2.27,0,0,0,1.18-.32,3.15,3.15,0,0,0,1-1l.13-.18-6-11.65H370l4.06,8.52,4.19-8.52Z" transform="translate(-99.21 -240.66)"/><path class="cls-1" d="M396.26,316.11a3.81,3.81,0,0,1,.74,2.4,3.9,3.9,0,0,1-1.54,3.29,7.06,7.06,0,0,1-4.39,1.18h-7.54V307.11h7.12a7,7,0,0,1,4.15,1.06,3.51,3.51,0,0,1,1.48,3,3.88,3.88,0,0,1-.56,2.08,4,4,0,0,1-1.6,1.41A4.13,4.13,0,0,1,396.26,316.11Zm-9.21-2.43h3.3a2.64,2.64,0,0,0,1.74-.49,1.73,1.73,0,0,0,.59-1.44,1.77,1.77,0,0,0-.6-1.43,2.66,2.66,0,0,0-1.73-.49h-3.3Zm6.37,4.54c0-1.32-.83-2-2.48-2h-3.89v4h3.89C392.59,320.26,393.42,319.58,393.42,318.22Z" transform="translate(-99.21 -240.66)"/><path class="cls-1" d="M410.26,319.58h-7.1l-1.35,3.4h-3.63L405,307.11h3.5L415.32,323h-3.71Zm-1.12-2.79-2.42-6.08-2.42,6.08Z" transform="translate(-99.21 -240.66)"/><path class="cls-1" d="M431.48,307.11V323h-3.54v-6.51H421V323h-3.54V307.11H421v6.25h6.94v-6.25Z" transform="translate(-99.21 -240.66)"/><path class="cls-1" d="M449.42,307.11V323h-3.53v-6.51h-6.95V323h-3.53V307.11h3.53v6.25h6.95v-6.25Z" transform="translate(-99.21 -240.66)"/><path class="cls-1" d="M465.56,307.11V323h-3.5v-4.22h-3.23L456.12,323h-3.73l3.19-4.79a5,5,0,0,1-2.38-2,6.56,6.56,0,0,1,0-6.35,5.35,5.35,0,0,1,2.29-2,7.91,7.91,0,0,1,3.49-.71Zm-8.81,3.71A2.8,2.8,0,0,0,456,313a2.85,2.85,0,0,0,.76,2.13,3.09,3.09,0,0,0,2.25.75h3.1V310.1h-3A3.32,3.32,0,0,0,456.75,310.82Z" transform="translate(-99.21 -240.66)"/></svg>